<?xml version="1.0" standalone="no"?>
<!DOCTYPE svg PUBLIC "-//W3C//DTD SVG 20010904//EN"
 "http://www.w3.org/TR/2001/REC-SVG-20010904/DTD/svg10.dtd">
<svg version="1.0" xmlns="http://www.w3.org/2000/svg"
 width="16.000000pt" height="16.000000pt" viewBox="0 0 16.000000 16.000000"
 preserveAspectRatio="xMidYMid meet">
<metadata>
Created by potrace 1.11, written by Peter Selinger 2001-2013
</metadata>
<g transform="translate(0.000000,16.000000) scale(0.008000,-0.008000)"
fill="#000000" stroke="none">
<path d="M1060 1897 c-74 -36 -96 -55 -158 -135 -280 -363 -771 -1234 -772
-1369 0 -61 122 -81 455 -77 213 2 367 9 475 19 19 1 49 3 67 4 l31 1 -44 168
c-24 92 -50 187 -57 212 l-13 45 -7 -60 c-11 -91 -36 -164 -60 -180 -58 -36
-217 -58 -297 -41 -47 11 -113 51 -143 89 -26 32 -31 46 -30 90 2 129 100 353
338 770 31 54 139 229 211 343 46 72 84 134 84 138 0 12 -36 5 -80 -17z"/>
<path d="M1147 1735 c-20 -14 -56 -51 -80 -82 -42 -56 -147 -211 -147 -218 0
-2 -22 -40 -50 -85 -27 -45 -50 -83 -50 -85 0 -2 -15 -30 -34 -62 -52 -90
-156 -291 -156 -301 0 -6 10 -12 23 -15 29 -7 98 -28 377 -112 8 -3 2 5 -15
17 -49 38 -135 130 -136 147 -6 70 20 151 77 237 68 102 179 153 260 119 122
-51 335 -375 607 -927 78 -158 145 -287 148 -287 10 -1 25 63 28 120 3 68 -22
148 -109 343 -189 428 -514 1016 -642 1161 -47 54 -59 58 -101 30z"/>
<path d="M1195 919 l-150 -149 55 21 c79 31 148 48 172 44 32 -6 85 -51 127
-108 87 -118 108 -225 60 -319 -39 -77 -182 -116 -494 -134 -210 -12 -678 -7
-912 11 -29 2 -53 1 -53 -4 0 -23 102 -95 155 -110 54 -14 67 -16 245 -36 34
-4 182 -13 325 -20 94 -5 705 -5 780 -1 247 16 335 36 343 79 9 47 -80 242
-207 450 -109 180 -275 427 -286 426 -5 0 -77 -68 -160 -150z"/>
</g>
</svg>
